<svg width="15" height="15" viewBox="0 0 15 15" fill="none" xmlns="http://www.w3.org/2000/svg">
    <path
        d="M2.73158 14.3437H11.9635C13.5528 14.3437 14.3438 13.5528 14.3438 11.9863V2.70115C14.3438 1.13462 13.5528 0.34375 11.9635 0.34375H2.73158C1.14984 0.34375 0.34375 1.127 0.34375 2.70115V11.9863C0.34375 13.5604 1.14984 14.3437 2.73158 14.3437ZM6.3133 11.2334C6.04718 11.2334 5.84942 11.1194 5.63651 10.8608L3.43881 8.1536C3.32473 8.00912 3.2563 7.82661 3.2563 7.65932C3.2563 7.30189 3.53767 7.02815 3.87225 7.02815C4.09279 7.02815 4.28289 7.11179 4.45781 7.34755L6.2753 9.69732L9.8114 4.03195C9.95588 3.7962 10.1536 3.68215 10.3513 3.68215C10.6859 3.68215 11.0129 3.90266 11.0129 4.26771C11.0129 4.435 10.9141 4.61751 10.8152 4.76958L6.95209 10.8608C6.7848 11.1118 6.57186 11.2334 6.3133 11.2334Z"
        fill="#0E8DC7" />
</svg>