<svg width="23" height="23" viewBox="0 0 23 23" fill="none" xmlns="http://www.w3.org/2000/svg">
    <path
        d="M4.09606 22.3435H18.6033C21.1008 22.3435 22.3437 21.1008 22.3437 18.6391V4.04821C22.3437 1.58654 21.1008 0.34375 18.6033 0.34375H4.09606C1.61046 0.34375 0.34375 1.57456 0.34375 4.04821V18.6391C0.34375 21.1127 1.61046 22.3435 4.09606 22.3435ZM9.72447 17.456C9.30627 17.456 8.99551 17.2768 8.66094 16.8705L5.20741 12.6163C5.02814 12.3893 4.92061 12.1025 4.92061 11.8396C4.92061 11.2779 5.36277 10.8478 5.88854 10.8478C6.2351 10.8478 6.53383 10.9792 6.8087 11.3497L9.66476 15.0421L15.2215 6.13947C15.4485 5.769 15.7592 5.58979 16.07 5.58979C16.5957 5.58979 17.1096 5.93629 17.1096 6.50994C17.1096 6.77282 16.9543 7.05962 16.7989 7.29859L10.7283 16.8705C10.4654 17.2648 10.1308 17.456 9.72447 17.456Z"
        fill="#0E8DC7" />
</svg>